<svg version="1.0" xmlns="http://www.w3.org/2000/svg" width="24"
height="24" viewBox="0 0 512.000000 512.000000"
preserveAspectRatio="xMidYMid meet">
<g transform="translate(0.000000,512.000000) scale(0.100000,-0.100000)"
fill="#000000" stroke="none">
<path
d="M610 4304 c-197 -52 -363 -210 -424 -404 l-26 -81 0 -1259 0 -1259 26 -81 c48 -153 166 -290 309 -360 130 -64 -5 -60 2065 -60 2070 0 1935 -4 2065 60 136 66 257 202 306 346 l24 69 0 1285 0 1285 -24 69 c-65 188 -232 341 -426 391 -87 22 -3810 22 -3895 -1z m3862 -342 c70 -34 105 -71 141 -150 l22 -47 0 -1205 0 -1205 -26 -55 c-33 -70 -79 -116 -149 -149 l-55 -26 -1845 0 -1845 0 -47 22 c-79 36 -116 71 -150 141 l-33 67 -3 1160 c-2 705 1 1184 7 1222 22 141 106 230 240 253 25 4 863 7 1861 6 l1815 -1 67 -33z" />
<path
d="M872 3500 c-48 -30 -72 -75 -72 -140 0 -65 24 -110 72 -140 33 -20 54 -20 1688 -20 1634 0 1655 0 1688 20 48 30 72 75 72 140 0 65 -24 110 -72 140 -33 20 -54 20 -1688 20 -1634 0 -1655 0 -1688 -20z" />
<path
d="M872 1740 c-48 -30 -72 -75 -72 -140 0 -65 24 -110 72 -140 31 -19 51 -20 408 -20 357 0 377 1 408 20 48 30 72 75 72 140 0 65 -24 110 -72 140 -31 19 -51 20 -408 20 -357 0 -377 -1 -408 -20z" />
</g>
</svg>