<?xml version="1.0" standalone="no"?>
<!DOCTYPE svg PUBLIC "-//W3C//DTD SVG 20010904//EN"
 "http://www.w3.org/TR/2001/REC-SVG-20010904/DTD/svg10.dtd">
<svg version="1.0" xmlns="http://www.w3.org/2000/svg"
 width="24" height="24" viewBox="0 0 512.000000 512.000000"
 preserveAspectRatio="xMidYMid meet">

<g transform="translate(0.000000,512.000000) scale(0.100000,-0.100000)"
fill="#000000" stroke="none">
<path d="M725 4311 c-90 -22 -172 -90 -215 -176 l-25 -50 0 -1525 0 -1525 23
-45 c35 -72 75 -114 144 -151 l63 -34 178 -3 c98 -2 194 -1 212 2 48 9 91 56
150 161 54 97 189 244 278 304 313 212 718 225 1040 35 119 -71 266 -221 332
-339 58 -104 102 -152 148 -160 18 -3 329 -5 692 -3 l660 3 51 27 c76 40 107
70 145 140 l34 63 0 1525 0 1525 -34 63 c-37 69 -79 109 -151 144 l-45 23
-1825 2 c-1004 0 -1838 -2 -1855 -6z m3595 -1751 l0 -1440 -565 0 -564 0 -52
77 c-106 156 -282 317 -444 404 l-74 40 65 77 c72 85 142 218 171 322 25 91
24 310 -1 400 -77 278 -289 493 -563 572 -102 30 -313 32 -413 5 -226 -62
-415 -217 -515 -422 -54 -112 -74 -184 -82 -302 -14 -214 52 -408 200 -584
l57 -68 -52 -27 c-161 -81 -360 -259 -466 -416 l-53 -78 -84 0 -85 0 0 1440 0
1440 1760 0 1760 0 0 -1440z m-2125 145 c172 -45 305 -179 350 -352 65 -249
-94 -511 -350 -578 -251 -65 -513 94 -580 350 -89 343 237 669 580 580z"/>
<path d="M1215 3666 c-41 -18 -83 -69 -90 -109 -4 -18 -5 -118 -3 -224 3 -210
5 -218 72 -267 39 -29 133 -29 172 0 60 44 69 67 72 185 l4 109 1119 0 1119 0
0 -799 0 -799 -109 -4 c-118 -3 -141 -12 -185 -72 -29 -39 -29 -133 0 -172 51
-68 53 -69 294 -69 241 0 243 1 294 69 21 27 21 33 21 1046 0 1013 0 1019 -21
1046 -11 15 -33 37 -48 48 -27 21 -31 21 -1354 23 -1088 2 -1332 0 -1357 -11z"/>
</g>
</svg>
