<?xml version="1.0" standalone="no"?>
<!DOCTYPE svg PUBLIC "-//W3C//DTD SVG 20010904//EN"
 "http://www.w3.org/TR/2001/REC-SVG-20010904/DTD/svg10.dtd">
<svg version="1.0" xmlns="http://www.w3.org/2000/svg"
 width="512.000000pt" height="512.000000pt" viewBox="0 0 512.000000 512.000000"
 preserveAspectRatio="xMidYMid meet">
<metadata>
Created by potrace 1.16, written by Peter Selinger 2001-2019
</metadata>
<g transform="translate(0.000000,512.000000) scale(0.100000,-0.100000)"
fill="#000000" stroke="none">
<path d="M2465 4970 c-77 -14 -164 -49 -235 -94 -192 -124 -1753 -1225 -1796
-1268 -61 -59 -116 -149 -147 -238 l-22 -65 -3 -1247 c-3 -1395 -6 -1325 68
-1475 77 -156 229 -271 405 -308 100 -21 670 -21 770 0 167 35 323 150 398
293 71 136 70 128 76 632 l6 455 23 33 c50 69 36 67 552 67 516 0 502 2 552
-67 l23 -33 6 -455 c6 -505 5 -495 77 -634 74 -142 230 -256 397 -291 100 -21
670 -21 770 0 176 37 329 153 405 309 74 149 71 81 68 1474 l-3 1247 -22 65
c-31 89 -86 179 -147 238 -46 46 -1739 1239 -1839 1296 -96 56 -271 86 -382
66z m205 -350 c76 -39 1746 -1214 1788 -1257 77 -82 73 1 70 -1364 l-3 -1214
-22 -41 c-28 -53 -74 -99 -127 -127 -40 -21 -49 -22 -376 -22 -327 0 -336 1
-376 22 -53 28 -99 74 -127 127 -22 40 -22 50 -27 506 -5 447 -6 467 -27 518
-52 128 -130 212 -253 271 l-75 36 -555 0 -555 0 -75 -36 c-123 -59 -201 -143
-253 -271 -21 -51 -22 -71 -27 -518 -5 -456 -5 -466 -27 -506 -28 -53 -74 -99
-127 -127 -40 -21 -49 -22 -376 -22 -327 0 -336 1 -376 22 -53 28 -99 74 -127
127 l-22 41 -3 1214 c-3 1354 -6 1281 65 1359 41 44 1758 1250 1808 1269 69
27 143 24 205 -7z"/>
</g>
</svg>
