<?xml version="1.0" standalone="no"?>
<!DOCTYPE svg PUBLIC "-//W3C//DTD SVG 20010904//EN"
 "http://www.w3.org/TR/2001/REC-SVG-20010904/DTD/svg10.dtd">
<svg version="1.0" xmlns="http://www.w3.org/2000/svg"
 width="512.000000pt" height="512.000000pt" viewBox="0 0 512.000000 512.000000"
 preserveAspectRatio="xMidYMid meet">
<metadata>
Created by potrace 1.16, written by Peter Selinger 2001-2019
</metadata>
<g transform="translate(0.000000,512.000000) scale(0.100000,-0.100000)"
fill="#000000" stroke="none">
<path d="M2465 4683 c-68 -21 -1925 -1136 -1975 -1186 -21 -21 -49 -59 -62
-85 l-23 -47 -3 -1285 c-2 -1149 -1 -1290 14 -1340 42 -148 167 -275 315 -321
56 -18 98 -19 540 -19 460 0 480 1 534 21 74 28 146 100 174 174 20 54 21 74
21 523 0 257 5 485 10 506 11 49 37 85 81 111 33 19 52 20 469 20 417 0 436
-1 469 -20 44 -26 70 -62 81 -111 5 -21 10 -249 10 -506 0 -449 1 -469 21
-523 28 -74 100 -146 174 -174 54 -20 74 -21 534 -21 442 0 484 1 540 19 148
46 273 173 315 321 15 50 16 191 14 1340 l-3 1285 -23 47 c-13 26 -41 64 -62
85 -54 54 -1908 1166 -1979 1187 -67 20 -120 19 -186 -1z"/>
</g>
</svg>
