<?xml version="1.0" standalone="no"?>
<!DOCTYPE svg PUBLIC "-//W3C//DTD SVG 20010904//EN"
 "http://www.w3.org/TR/2001/REC-SVG-20010904/DTD/svg10.dtd">
<svg version="1.0" xmlns="http://www.w3.org/2000/svg"
 width="512.000000pt" height="512.000000pt" viewBox="0 0 512.000000 512.000000"
 preserveAspectRatio="xMidYMid meet">
<metadata>
Created by potrace 1.16, written by Peter Selinger 2001-2019
</metadata>
<g transform="translate(0.000000,512.000000) scale(0.100000,-0.100000)"
fill="#000000" stroke="none">
<path d="M1220 4849 c-14 -5 -36 -20 -48 -32 -47 -43 -52 -67 -52 -230 l0
-154 -87 -6 c-49 -3 -118 -14 -154 -26 -133 -42 -267 -154 -332 -279 -72 -136
-67 -15 -67 -1780 l0 -1591 25 -79 c63 -198 235 -354 440 -397 105 -22 3125
-22 3230 0 205 43 377 199 440 397 l25 79 0 1591 c0 1764 4 1644 -66 1779 -66
125 -201 238 -333 280 -36 12 -105 23 -153 26 l-88 6 0 157 c0 146 -2 159 -22
190 -39 57 -72 75 -138 75 -66 0 -99 -18 -137 -75 -21 -31 -23 -44 -23 -191
l0 -159 -264 0 -265 0 -3 164 c-3 147 -5 168 -24 193 -25 35 -98 73 -139 73
-54 0 -117 -40 -142 -90 -21 -40 -23 -59 -23 -192 l0 -148 -260 0 -260 0 0
148 c0 136 -2 153 -23 192 -26 50 -90 90 -141 90 -42 0 -115 -38 -140 -73 -19
-25 -21 -46 -24 -193 l-3 -164 -265 0 -264 0 0 159 c0 147 -2 160 -22 191 -13
18 -35 42 -50 53 -31 23 -111 32 -148 16z m-100 -906 c0 -177 8 -204 72 -243
45 -27 131 -27 176 0 64 39 72 66 72 243 l0 157 265 0 265 0 0 -150 c0 -130 3
-156 20 -189 54 -107 208 -111 284 -8 19 26 21 45 24 188 l3 159 259 0 259 0
3 -159 c3 -177 8 -191 78 -238 45 -31 129 -32 177 -2 61 38 73 78 73 249 l0
150 265 0 265 0 0 -157 c0 -177 8 -204 72 -243 45 -27 131 -27 176 0 64 39 72
66 72 243 l0 157 53 0 c98 0 198 -67 241 -160 l21 -45 0 -1545 0 -1545 -24
-53 c-30 -67 -98 -127 -164 -147 -76 -23 -3058 -23 -3134 0 -66 20 -134 80
-164 147 l-24 53 0 1545 0 1545 21 45 c43 93 143 160 242 160 l52 0 0 -157z"/>
<path d="M1409 3127 c-18 -12 -44 -38 -57 -57 -20 -29 -23 -44 -20 -93 5 -69
27 -103 88 -134 l44 -23 1096 0 1096 0 44 23 c61 31 83 65 88 134 3 49 0 64
-20 93 -13 19 -39 45 -57 57 l-34 23 -1117 0 -1117 0 -34 -23z"/>
<path d="M1420 2278 c-61 -32 -83 -66 -88 -135 -3 -49 0 -64 20 -93 13 -19 39
-45 57 -57 l34 -23 1117 0 1117 0 34 23 c18 12 44 38 57 57 20 29 23 44 20 93
-5 69 -27 103 -88 135 l-44 22 -1096 0 -1096 0 -44 -22z"/>
<path d="M2679 1416 c-93 -63 -90 -216 4 -275 34 -21 44 -21 517 -21 473 0
483 0 517 21 95 59 95 219 0 278 -34 21 -44 21 -518 21 l-484 0 -36 -24z"/>
</g>
</svg>
