<?xml version="1.0" standalone="no"?>
<!DOCTYPE svg PUBLIC "-//W3C//DTD SVG 20010904//EN"
 "http://www.w3.org/TR/2001/REC-SVG-20010904/DTD/svg10.dtd">
<svg version="1.0" xmlns="http://www.w3.org/2000/svg"
 width="512.000000pt" height="512.000000pt" viewBox="0 0 512.000000 512.000000"
 preserveAspectRatio="xMidYMid meet">
<metadata>
Created by potrace 1.16, written by Peter Selinger 2001-2019
</metadata>
<g transform="translate(0.000000,512.000000) scale(0.100000,-0.100000)"
fill="#000000" stroke="none">
<path d="M1060 5113 c-36 -15 -72 -48 -90 -83 -18 -35 -20 -60 -20 -210 l0
-170 -54 0 c-196 0 -409 -103 -522 -253 -58 -77 -86 -132 -116 -227 l-23 -75
0 -1770 c0 -1670 1 -1774 18 -1835 65 -235 253 -422 479 -475 55 -13 300 -15
1828 -15 1970 0 1825 -5 1973 72 192 100 319 283 347 499 8 59 10 602 8 1809
l-3 1725 -27 80 c-63 186 -181 320 -353 401 -79 37 -196 64 -280 64 l-55 0 0
172 c0 165 -1 173 -25 215 -36 61 -89 86 -170 81 -48 -3 -71 -10 -97 -30 -61
-46 -68 -74 -68 -267 l0 -171 -295 0 -295 0 0 164 c0 176 -6 204 -48 249 -40
43 -75 57 -137 57 -64 0 -102 -16 -138 -60 -39 -46 -47 -90 -47 -257 l0 -153
-290 0 -290 0 0 153 c0 167 -8 211 -47 257 -36 44 -74 60 -138 60 -62 0 -97
-14 -137 -57 -42 -45 -48 -73 -48 -249 l0 -164 -295 0 -295 0 0 171 c0 193 -7
220 -68 267 -28 22 -47 27 -101 29 -36 1 -73 0 -81 -4z m2747 -1914 c34 -13
80 -55 99 -91 18 -35 18 -111 0 -146 -19 -37 -55 -68 -98 -87 -33 -13 -178
-15 -1248 -15 -1313 0 -1249 -3 -1308 53 -72 67 -68 194 7 255 52 42 14 41
1298 42 840 0 1230 -3 1250 -11z m1 -954 c43 -19 79 -50 98 -87 18 -35 18
-111 0 -146 -19 -36 -65 -78 -99 -91 -19 -8 -410 -11 -1247 -11 -837 0 -1228
3 -1247 11 -34 13 -80 55 -99 91 -18 35 -18 111 0 146 19 37 54 68 96 86 31
13 187 15 1248 16 1072 0 1217 -2 1250 -15z m13 -956 c20 -9 49 -34 65 -55 25
-32 29 -46 29 -103 0 -78 -24 -120 -85 -151 -38 -19 -61 -20 -555 -20 -494 0
-517 1 -555 20 -144 73 -112 289 47 321 21 4 259 6 528 6 431 -2 494 -4 526
-18z"/>
</g>
</svg>
