<?xml version="1.0" standalone="no"?>
<!DOCTYPE svg PUBLIC "-//W3C//DTD SVG 20010904//EN"
 "http://www.w3.org/TR/2001/REC-SVG-20010904/DTD/svg10.dtd">
<svg version="1.0" xmlns="http://www.w3.org/2000/svg"
 width="512.000000pt" height="512.000000pt" viewBox="0 0 512.000000 512.000000"
 preserveAspectRatio="xMidYMid meet">
<metadata>
Created by potrace 1.16, written by Peter Selinger 2001-2019
</metadata>
<g transform="translate(0.000000,512.000000) scale(0.100000,-0.100000)"
fill="#000000" stroke="none">
<path d="M2470 4689 c-124 -24 -245 -122 -302 -246 -29 -60 -32 -79 -36 -181
-4 -93 -7 -115 -21 -119 -232 -80 -473 -258 -626 -462 -123 -163 -217 -383
-249 -581 -8 -52 -36 -314 -62 -583 l-48 -487 -55 -31 c-77 -44 -169 -140
-213 -224 -67 -129 -87 -249 -64 -383 34 -192 150 -347 321 -429 119 -56 172
-63 533 -63 l322 0 0 -60 c0 -144 62 -292 168 -399 75 -76 145 -119 247 -152
98 -33 261 -32 355 0 245 85 410 307 410 551 l0 60 320 0 c254 0 337 3 398 16
274 56 465 290 466 569 1 110 -15 177 -62 275 -44 89 -139 191 -222 238 l-55
31 -48 488 c-27 268 -55 531 -63 583 -32 198 -126 418 -249 581 -153 204 -394
382 -626 462 -14 4 -17 26 -21 119 -4 102 -7 121 -36 181 -87 187 -281 285
-482 246z m350 -3832 c0 -99 -55 -189 -144 -234 -169 -89 -376 40 -376 234 l0
43 260 0 260 0 0 -43z"/>
</g>
</svg>
