<?xml version="1.0" standalone="no"?>
<!DOCTYPE svg PUBLIC "-//W3C//DTD SVG 20010904//EN"
 "http://www.w3.org/TR/2001/REC-SVG-20010904/DTD/svg10.dtd">
<svg version="1.0" xmlns="http://www.w3.org/2000/svg"
 width="512.000000pt" height="512.000000pt" viewBox="0 0 512.000000 512.000000"
 preserveAspectRatio="xMidYMid meet">
<metadata>
Created by potrace 1.16, written by Peter Selinger 2001-2019
</metadata>
<g transform="translate(0.000000,512.000000) scale(0.100000,-0.100000)"
fill="#000000" stroke="none">
<path d="M2446 4844 c-162 -39 -290 -157 -346 -319 -17 -49 -20 -84 -20 -225
l0 -167 -75 -33 c-183 -80 -392 -248 -520 -419 -123 -163 -217 -383 -249 -581
-8 -52 -36 -315 -63 -583 l-48 -488 -55 -31 c-123 -69 -236 -222 -271 -368
-19 -78 -16 -222 5 -295 58 -196 199 -342 393 -407 64 -21 87 -22 421 -26
l352 -3 0 -59 c0 -144 62 -292 168 -399 75 -76 145 -119 247 -152 98 -33 261
-32 355 0 245 85 410 307 410 551 l0 60 320 0 c254 0 337 3 398 16 274 56 465
290 466 569 1 110 -15 177 -62 275 -44 89 -139 191 -222 238 l-55 31 -48 488
c-27 268 -55 531 -63 583 -32 198 -126 418 -249 581 -128 171 -337 339 -520
419 l-75 33 0 162 c0 134 -4 174 -20 226 -74 240 -328 383 -574 323z m167
-328 c76 -32 106 -98 107 -231 l0 -70 -160 0 -160 0 0 70 c1 131 31 198 105
231 39 17 68 17 108 0z m97 -641 c335 -51 626 -268 766 -570 70 -152 79 -204
139 -798 30 -304 58 -565 61 -582 16 -76 73 -145 154 -185 112 -56 170 -137
170 -238 0 -85 -18 -131 -76 -189 -89 -89 11 -83 -1364 -83 -1376 0 -1277 -6
-1367 84 -86 86 -103 188 -47 297 27 54 67 90 138 126 87 43 144 110 160 188
3 17 31 278 61 582 60 594 69 646 139 798 138 298 433 520 761 571 109 17 193
17 305 -1z m110 -3018 c0 -99 -55 -189 -144 -234 -169 -89 -376 40 -376 234
l0 43 260 0 260 0 0 -43z"/>
</g>
</svg>
