<svg version="1.0" width="24" height="24"
xmlns="http://www.w3.org/2000/svg" viewBox="0 0 512.000000 512.000000"
preserveAspectRatio="xMidYMid meet">
<g transform="translate(0.000000,512.000000) scale(0.100000,-0.100000)"
fill="#000000" stroke="none">
<path
d="M2380 4945 c-252 -43 -500 -180 -660 -365 -391 -455 -369 -1111 50
-1530 418 -418 1076 -440 1527 -52 140 120 268 315 326 493 169 518 -61 1086
-541 1337 -220 115 -471 156 -702 117z m303 -316 c429 -66 730 -472 668 -899
-84 -571 -719 -871 -1208 -570 -280 172 -430 506 -369 822 84 432 479 713 909
647z" />
<path
d="M1596 2389 c-480 -63 -897 -408 -1050 -869 -59 -180 -61 -201 -61
-752 0 -496 0 -507 21 -534 11 -15 33 -37 48 -48 l27 -21 1979 0 1979 0 27 21
c15 11 37 33 48 48 21 27 21 38 21 534 0 453 -2 516 -18 592 -111 519 -481
892 -1007 1016 -69 16 -156 18 -1010 20 -514 1 -966 -2 -1004 -7z m1993 -337
c287 -76 516 -268 642 -537 77 -164 82 -200 86 -642 l4 -393 -1761 0 -1761 0
4 393 c3 364 5 398 25 476 101 384 421 668 817 724 17 2 442 4 945 3 913 -2
915 -2 999 -24z" />
</g>
</svg>