<?xml version="1.0" standalone="no"?>
<!DOCTYPE svg PUBLIC "-//W3C//DTD SVG 20010904//EN"
 "http://www.w3.org/TR/2001/REC-SVG-20010904/DTD/svg10.dtd">
<svg version="1.0" xmlns="http://www.w3.org/2000/svg"
 width="512.000000pt" height="512.000000pt" viewBox="0 0 512.000000 512.000000"
 preserveAspectRatio="xMidYMid meet">
<metadata>
Created by potrace 1.16, written by Peter Selinger 2001-2019
</metadata>
<g transform="translate(0.000000,512.000000) scale(0.100000,-0.100000)"
fill="#000000" stroke="none">
<path d="M2330 4940 c-424 -91 -749 -401 -860 -820 -33 -126 -39 -370 -12
-500 91 -436 395 -755 829 -871 119 -32 365 -38 493 -11 453 95 787 427 881
877 40 192 21 431 -51 628 -128 351 -444 618 -825 698 -121 25 -336 25 -455
-1z m455 -340 c222 -69 396 -221 493 -430 52 -111 72 -204 72 -333 0 -301
-167 -570 -435 -703 -122 -60 -222 -84 -352 -84 -129 0 -222 20 -333 72 -169
78 -294 199 -376 363 -60 122 -84 222 -84 352 0 136 21 225 80 348 84 172 193
281 365 365 185 90 383 107 570 50z"/>
<path d="M1535 2384 c-521 -92 -934 -502 -1036 -1026 -17 -89 -19 -147 -19
-596 0 -478 1 -498 20 -530 11 -18 34 -41 52 -52 33 -20 55 -20 2008 -20 1953
0 1975 0 2008 20 18 11 41 34 52 52 19 32 20 52 20 524 0 541 -4 596 -62 769
-127 380 -433 686 -813 813 -187 62 -184 62 -1214 61 -761 -1 -951 -3 -1016
-15z m2015 -328 c377 -88 662 -374 745 -746 13 -60 18 -152 22 -453 l6 -377
-1763 0 -1763 0 6 378 c4 300 9 392 22 452 92 413 438 721 854 760 47 4 471 7
941 6 775 -2 862 -4 930 -20z"/>
</g>
</svg>
