<?xml version="1.0" standalone="no"?>
<!DOCTYPE svg PUBLIC "-//W3C//DTD SVG 20010904//EN"
 "http://www.w3.org/TR/2001/REC-SVG-20010904/DTD/svg10.dtd">
<svg version="1.0" xmlns="http://www.w3.org/2000/svg"
 width="512.000000pt" height="512.000000pt" viewBox="0 0 512.000000 512.000000"
 preserveAspectRatio="xMidYMid meet">
<metadata>
Created by potrace 1.16, written by Peter Selinger 2001-2019
</metadata>
<g transform="translate(0.000000,512.000000) scale(0.100000,-0.100000)"
fill="#000000" stroke="none">
<path d="M2327 4940 c-440 -95 -777 -434 -867 -871 -28 -136 -24 -377 8 -505
101 -395 414 -709 812 -814 129 -34 369 -39 507 -11 440 91 784 433 873 869
27 133 27 331 1 457 -90 427 -399 753 -821 865 -123 33 -387 38 -513 10z"/>
<path d="M1535 2384 c-521 -92 -934 -502 -1036 -1026 -17 -89 -19 -147 -19
-596 0 -478 1 -498 20 -530 11 -18 34 -41 52 -52 33 -20 55 -20 2008 -20 1953
0 1975 0 2008 20 18 11 41 34 52 52 19 32 20 52 20 524 0 541 -4 596 -62 769
-127 380 -433 686 -813 813 -187 62 -184 62 -1214 61 -761 -1 -951 -3 -1016
-15z"/>
</g>
</svg>
